<svg aria-hidden="true" style="position: absolute; width: 0; height: 0; overflow: hidden;" version="1.1" xmlns="http://www.w3.org/2000/svg" xmlns:xlink="http://www.w3.org/1999/xlink">
<defs>
<symbol id="icon-exclamation-circle" viewBox="0 0 24 28">
<path d="M12 2c6.625 0 12 5.375 12 12s-5.375 12-12 12-12-5.375-12-12 5.375-12 12-12zM14 21.484v-2.969c0-0.281-0.219-0.516-0.484-0.516h-3c-0.281 0-0.516 0.234-0.516 0.516v2.969c0 0.281 0.234 0.516 0.516 0.516h3c0.266 0 0.484-0.234 0.484-0.516zM13.969 16.109l0.281-9.703c0-0.109-0.047-0.219-0.156-0.281-0.094-0.078-0.234-0.125-0.375-0.125h-3.437c-0.141 0-0.281 0.047-0.375 0.125-0.109 0.063-0.156 0.172-0.156 0.281l0.266 9.703c0 0.219 0.234 0.391 0.531 0.391h2.891c0.281 0 0.516-0.172 0.531-0.391z"></path>
</symbol>
<symbol id="icon-airplay" viewBox="0 0 24 24">
<path d="M5 16h-1c-0.276 0-0.525-0.111-0.707-0.293s-0.293-0.431-0.293-0.707v-10c0-0.276 0.111-0.525 0.293-0.707s0.431-0.293 0.707-0.293h16c0.276 0 0.525 0.111 0.707 0.293s0.293 0.431 0.293 0.707v10c0 0.276-0.111 0.525-0.293 0.707s-0.431 0.293-0.707 0.293h-1c-0.552 0-1 0.448-1 1s0.448 1 1 1h1c0.828 0 1.58-0.337 2.121-0.879s0.879-1.293 0.879-2.121v-10c0-0.828-0.337-1.58-0.879-2.121s-1.293-0.879-2.121-0.879h-16c-0.828 0-1.58 0.337-2.121 0.879s-0.879 1.293-0.879 2.121v10c0 0.828 0.337 1.58 0.879 2.121s1.293 0.879 2.121 0.879h1c0.552 0 1-0.448 1-1s-0.448-1-1-1zM12.768 14.36c-0.035-0.043-0.079-0.087-0.128-0.128-0.424-0.354-1.055-0.296-1.408 0.128l-5 6c-0.144 0.172-0.232 0.396-0.232 0.64 0 0.552 0.448 1 1 1h10c0.225 0.001 0.453-0.075 0.64-0.232 0.424-0.354 0.482-0.984 0.128-1.408zM12 16.562l2.865 3.438h-5.73z"></path>
</symbol>
</defs>
</svg>
